# xmcd
#
# Track frame offsets:
# 150
# 18025
# 32224
# 78989
# 115686
# 132185
# 157874
# 182540
# 209583
# 232099
# 257188
# 272287
#
# Disc length: 3908 seconds
#
#
# Revision: 0
# Processed by: cddbd v1.5.2PL0 Copyright (c) Steve Scherf et al.
# Submitted via: FreeRIP 2.941 
#
DISCID=930f420c
DTITLE=Various Artist - TRUE BLUE: 75 Years of Blue Note Records Disc 3/4
DYEAR=2014
DGENRE=Blues
TTITLE0=Gregory Porter - No Love Dying
TTITLE1=Paul Chambers Quintet - Sofly as in a Morning Sunshin
TTITLE2=Lee Morgan - The Sidewinder
TTITLE3=Wayne  Shorter - Witch Hunt
TTITLE4=Patricia Barber - You're the Top
TTITLE5=Donald Byrd - Cristo Redentor
TTITLE6=Kenny Burrell - Chitlins Con Carne
TTITLE7=Freddie Redd - Blues - Blues - Blues
TTITLE8=Ron Carter - As Time Goes By
TTITLE9=Medeski Martin and Wood - End of the World Party
TTITLE10=Norah Jones - Come Away with Me
TTITLE11=Us3 - Cantaloop (Flip Fantasia)
EXTD=
EXTT0=
EXTT1=
EXTT2=
EXTT3=
EXTT4=
EXTT5=
EXTT6=
EXTT7=
EXTT8=
EXTT9=
EXTT10=
EXTT11=
PLAYORDER=
